<svg id="Layer_5" enable-background="new 0 0 64 64" height="512" viewBox="0 0 64 64" width="512" xmlns="http://www.w3.org/2000/svg"><g><g><g><path d="m25 41.414-7.414-7.414 4.414-4.414 3 3 11-11 4.414 4.414z" fill="#f0bc5e"/></g></g><g><path d="m21 5h26v9h-26z" fill="#f0bc5e"/></g><g><path d="m61.553 53.658-9.317-4.658h-1.236v-48h-33.414l-10.586 10.586v37.494c-3.386.488-6 3.401-6 6.92 0 3.859 3.141 7 7 7h44.236l9.317-4.658c.892-.447 1.447-1.345 1.447-2.342s-.555-1.895-1.447-2.342zm-10.553-2.658v2h-38v-2zm0 6h-38v-2h38zm-38 2h38v2h-38zm36-10h-40v-36h10v-10h30zm-38.586-38 6.586-6.586v6.586zm-7.414 45c0-2.757 2.243-5 5-5h3v10h-3c-2.757 0-5-2.243-5-5zm57.658.553-7.658 3.829v-8.764l7.657 3.829c.212.106.343.318.343.553s-.131.447-.342.553z"/><path d="m13 45h32v-28h-32zm2-26h28v24h-28z"/><path d="m21 5h2v2h-2z"/><path d="m25 5h22v2h-22z"/><path d="m21 9h26v2h-26z"/><path d="m21 13h26v2h-26z"/></g></g></svg>